<svg width="100" height="117" fill="none" xmlns="http://www.w3.org/2000/svg"><g clip-path="url(#a)" fill="#000"><path d="M96.661 55.89H68.844L58.778 65.955a13.244 13.244 0 0 1-9.422 3.9 13.263 13.263 0 0 1-9.434-3.906 13.262 13.262 0 0 1-3.905-9.417c0-.216.055-.427.06-.644H3.334A3.333 3.333 0 0 0 0 59.222v13.334h100V59.222a3.333 3.333 0 0 0-3.339-3.333zm-42.394 5.55L82.35 33.355a3.333 3.333 0 0 0 .011-4.717l-5.111-5.111a3.35 3.35 0 0 0-4.722 0L44.444 51.617a6.945 6.945 0 1 0 9.823 9.822zm-38.584 51.51c.54 2.228 2.861 4.05 5.15 4.05h58.334c2.289 0 4.61-1.822 5.15-4.05l8.46-34.839H7.223l8.461 34.839z"/><path fill-rule="evenodd" clip-rule="evenodd" d="M35.623 50.754H6.766c-2.182-6.611-.76-13.537 2.613-15.973l-6.94-15.963c-.205-.47-.188-1.015.048-1.513s.67-.91 1.209-1.143l4.058-1.765a2.384 2.384 0 0 1 1.66-.104c.526.167.936.526 1.14.996l6.94 15.964c4.444-.878 11.201 3.566 14.286 10.661l3.843 8.84zM39.665 48.352l18.584-18.585c-1.446-5.244-4.781-9.26-8.114-9.986l-.013-17.407c0-.513-.234-1.005-.649-1.367A2.384 2.384 0 0 0 47.908.44l-4.425.003c-.586 0-1.149.205-1.563.568-.415.363-.648.855-.648 1.368l.013 17.407c-3.887.853-7.771 6.186-8.653 12.715l7.033 15.85z"/></g><defs><clipPath id="a"><path fill="#fff" d="M0 0h100v117H0z"/></clipPath></defs></svg>