<svg width="100" height="117" fill="none" xmlns="http://www.w3.org/2000/svg"><g clip-path="url(#a)" fill="#000"><path d="M96.661 55.89H68.844L58.778 65.955a13.244 13.244 0 0 1-9.422 3.9 13.263 13.263 0 0 1-9.434-3.906 13.262 13.262 0 0 1-3.905-9.417c0-.216.055-.427.06-.644H3.334A3.333 3.333 0 0 0 0 59.222v13.334h100V59.222a3.333 3.333 0 0 0-3.339-3.333zm-42.394 5.55L82.35 33.355a3.333 3.333 0 0 0 .011-4.717l-5.111-5.111a3.35 3.35 0 0 0-4.722 0L44.444 51.617a6.945 6.945 0 1 0 9.823 9.822zm-38.584 51.51c.54 2.228 2.861 4.05 5.15 4.05h58.334c2.289 0 4.61-1.822 5.15-4.05l8.46-34.839H7.223l8.461 34.839z"/><path fill-rule="evenodd" clip-rule="evenodd" d="M35.622 50.754H6.766c-2.182-6.611-.761-13.537 2.612-15.973l-6.94-15.963c-.205-.47-.187-1.015.049-1.513s.67-.91 1.209-1.143l4.058-1.764a2.384 2.384 0 0 1 1.66-.105c.525.168.935.526 1.14.996l6.94 15.964c4.444-.877 11.2 3.566 14.285 10.661l3.843 8.84z"/></g><defs><clipPath id="a"><path fill="#fff" d="M0 0h100v117H0z"/></clipPath></defs></svg>