<svg width="100" height="117" fill="none" xmlns="http://www.w3.org/2000/svg"><path d="M96.661 55.889H68.844L58.778 65.955a13.245 13.245 0 0 1-9.422 3.9 13.263 13.263 0 0 1-9.434-3.905 13.26 13.26 0 0 1-3.905-9.417c0-.216.055-.428.06-.644H3.334A3.333 3.333 0 0 0 0 59.222v13.333h100V59.222a3.332 3.332 0 0 0-3.339-3.333zm-42.394 5.55L82.35 33.355a3.332 3.332 0 0 0 .011-4.716l-5.111-5.111a3.35 3.35 0 0 0-4.722 0L44.444 51.617a6.945 6.945 0 0 0 9.823 9.822zM15.683 112.95c.54 2.228 2.861 4.05 5.15 4.05h58.334c2.289 0 4.61-1.822 5.15-4.05l8.46-34.839H7.223l8.461 34.839z" fill="#000"/></svg>