<svg width="532" height="103" fill="none" xmlns="http://www.w3.org/2000/svg"><path d="m6.177 15.053 18.262-4.101 41.113 1.074 4.688 14.648-4.688 68.164-29.296 3.809L.904 92.104.22 59.682l5.957-44.629zM37.33 28.92c-2.604-.065-5.11.163-7.52.684a31.888 31.888 0 0 0-6.64 2.246 33.276 33.276 0 0 0-5.86 3.516 29.61 29.61 0 0 0-4.98 4.492 35.144 35.144 0 0 0-4.004 5.273 40.436 40.436 0 0 0-2.832 5.86 31.806 31.806 0 0 0-1.563 6.054 26.993 26.993 0 0 0-.293 6.055c.13 2.018.391 4.07.782 6.152.39 2.019.944 3.972 1.66 5.86a42.855 42.855 0 0 0 2.734 5.469 27.954 27.954 0 0 0 3.906 4.882 31.773 31.773 0 0 0 5.079 4.102c1.953 1.172 4.101 2.18 6.445 3.027 2.409.847 5.046 1.498 7.91 1.953 2.93.391 6.087.554 9.473.489a60.01 60.01 0 0 0 4.785-.196c1.627-.195 3.223-.423 4.785-.683a52.607 52.607 0 0 0 4.59-1.172 35.351 35.351 0 0 0 4.2-1.758l3.32-13.77-5.079.098a51.469 51.469 0 0 1-4.199 4.98 31.327 31.327 0 0 1-4.785 4.102 22.613 22.613 0 0 1-5.273 2.735c-1.823.65-3.744.944-5.762.879-1.888 0-3.614-.228-5.176-.684a21.936 21.936 0 0 1-4.2-1.758 16.895 16.895 0 0 1-3.32-2.734 25.67 25.67 0 0 1-2.636-3.32 24.683 24.683 0 0 1-1.856-3.712 32.968 32.968 0 0 1-1.27-4.101 29.95 29.95 0 0 1-.683-4.102c-.13-1.432-.195-2.8-.195-4.101a41.286 41.286 0 0 1 .098-4.883c.13-1.758.357-3.516.683-5.273a71.418 71.418 0 0 1 1.172-5.372 37.537 37.537 0 0 1 1.855-4.98 25.07 25.07 0 0 1 2.54-4.492c.976-1.433 2.083-2.637 3.32-3.614a12.903 12.903 0 0 1 4.101-2.343c1.498-.586 3.158-.88 4.98-.88 2.475 0 4.786.392 6.934 1.173 2.149.781 4.07 1.823 5.762 3.125a24.523 24.523 0 0 1 4.688 4.297 34.778 34.778 0 0 1 3.515 4.98l5.078.195-3.027-15.136a95.178 95.178 0 0 0-5.86-1.367 56.183 56.183 0 0 0-5.761-1.075 90.272 90.272 0 0 0-5.86-.781 82.795 82.795 0 0 0-5.761-.39zm35.84-1.367 45.507 3.613-7.421 13.282 8.007 21.875-11.914 30.664-34.765 1.172-2.344-11.914V35.268l2.93-7.715zm21.972 20.508-3.71-.195a14.612 14.612 0 0 1-2.735 2.93 15.442 15.442 0 0 1-3.223 2.148 21.024 21.024 0 0 1-3.515 1.465 32.327 32.327 0 0 1-3.614.78l.098 2.442 5.078 2.149L81.08 85.56l-6.934 1.758-.195 2.344 26.172 2.832.097-3.028-8.3-2.343 1.757-21.778c0-.39.098-.944.293-1.66.196-.716.456-1.4.782-2.05a8.561 8.561 0 0 1 1.27-1.66c.52-.457 1.073-.684 1.66-.684a5.36 5.36 0 0 1 1.464.78 2.6 2.6 0 0 1 .879.587l.977.78c.325.196.651.424.976.684.391.196.749.391 1.074.587.326.13.652.227.977.292.391.066.749.066 1.074 0 .651-.13 1.27-.39 1.856-.78a5.981 5.981 0 0 0 1.66-1.466 6.348 6.348 0 0 0 1.172-1.855c.26-.651.325-1.302.195-1.953-.065-.716-.325-1.432-.781-2.149a8.53 8.53 0 0 0-1.465-1.953 6.296 6.296 0 0 0-2.051-1.367c-.716-.325-1.432-.456-2.148-.39a6.634 6.634 0 0 0-2.735.78c-.846.391-1.66.912-2.441 1.563-.716.651-1.432 1.4-2.148 2.246a113.54 113.54 0 0 0-2.051 2.54l.976-10.157zm30.664-26.855 18.848-.88 9.668 14.454-.879 62.011-34.375.196 1.27-68.36 5.468-7.421zm14.844 29.882-3.32.196a15.62 15.62 0 0 1-2.93 2.93 16.816 16.816 0 0 1-3.418 2.148 22.032 22.032 0 0 1-3.808 1.465 84.308 84.308 0 0 1-3.907.879l.098 2.636c.911 0 1.79.033 2.637.098.846.065 1.595.195 2.246.39.716.196 1.302.489 1.758.88.455.39.716.91.781 1.562l1.66 24.414c0 .326-.033.651-.098.977a5.495 5.495 0 0 1-.293.976c-.13.326-.325.619-.586.88a1.447 1.447 0 0 1-.683.39l-5.86.976.293 3.223 25.489-1.66-.293-2.735-6.446-1.074c-.325-.065-.585-.26-.781-.586a9.05 9.05 0 0 1-.293-1.074l-2.246-37.89zm-6.152-20.215c-.912 0-1.758.196-2.539.586a6.632 6.632 0 0 0-1.953 1.368 6.64 6.64 0 0 0-1.368 1.953c-.325.716-.455 1.432-.39 2.148 0 .782.163 1.595.488 2.442a9.658 9.658 0 0 0 1.465 2.148 10.54 10.54 0 0 0 2.148 1.66c.782.39 1.563.586 2.344.586.781 0 1.53-.163 2.246-.488a7.825 7.825 0 0 0 2.051-1.465 6.396 6.396 0 0 0 1.465-2.246 5.55 5.55 0 0 0 .488-2.734 3.67 3.67 0 0 0-.683-2.149 6.103 6.103 0 0 0-1.563-1.855 6.294 6.294 0 0 0-2.051-1.367c-.716-.391-1.432-.587-2.148-.587zm20.605-4.98 22.657 1.66-5.762-3.906 31.152-5.566-2.734 5.859 26.172-4.688 9.472 12.403 8.203 31.64-2.148 29.102L221.9 96.01l-66.211-1.367-.586-68.75zm19.922 20.508h-2.734l-1.27 1.27c-.39.39-.781.748-1.172 1.074-.39.325-.781.618-1.172.879-.39.26-.846.52-1.367.78-.455.261-.976.522-1.562.782-.586.195-1.237.39-1.953.586-.716.195-1.563.423-2.539.684-.912.195-1.954.423-3.125.683l-.196 2.05c.261.196.554.359.879.49.326.064.651.162.977.292.39.065.781.163 1.172.293.39.13.748.293 1.074.488.325.196.618.424.879.684.325.26.586.586.781.977.26.39.423.846.488 1.367.131.52.163 1.14.098 1.855l-.879 23.73-5.859.489-.489 3.223 22.266.488.195-2.93-5.468-1.66.683-26.758c.521-.65 1.172-1.302 1.953-1.953a16.263 16.263 0 0 1 2.637-1.66 14.883 14.883 0 0 1 2.832-1.074 8.984 8.984 0 0 1 2.93-.293c.846.065 1.758.293 2.734.683a10.74 10.74 0 0 1 2.734 1.368 6.544 6.544 0 0 1 2.051 1.953c.586.716.847 1.497.782 2.343l-.489 26.075-6.738 1.074.195 3.32 23.926.196-.098-2.93-6.836-1.66.782-26.075 2.05-2.05a17.797 17.797 0 0 1 2.442-2.051 10.756 10.756 0 0 1 2.734-1.367 7.18 7.18 0 0 1 3.125-.489 8.586 8.586 0 0 1 2.832.684 5.95 5.95 0 0 1 2.539 1.66c.782.716 1.4 1.66 1.856 2.832.521 1.107.814 2.507.879 4.2l-.293 23.144-5.176 1.855v2.344l21.289.489-.098-2.54-5.957-2.148.879-21.973c0-.911-.065-1.823-.195-2.734s-.358-1.79-.684-2.637a10.997 10.997 0 0 0-1.074-2.539 11.775 11.775 0 0 0-1.66-2.344 10.401 10.401 0 0 0-2.148-1.953 9.755 9.755 0 0 0-2.637-1.562 11.017 11.017 0 0 0-3.028-.977 12.423 12.423 0 0 0-3.515-.293c-1.367 0-2.767.163-4.199.489-1.368.26-2.702.683-4.004 1.27a17.295 17.295 0 0 0-3.711 2.05 15.514 15.514 0 0 0-3.028 2.832c-1.041-1.563-2.115-2.832-3.222-3.809-1.107-.976-2.246-1.725-3.418-2.246a14.328 14.328 0 0 0-3.711-1.074 24.635 24.635 0 0 0-3.906-.488 13.295 13.295 0 0 0-3.907.39 21.377 21.377 0 0 0-3.711 1.367 27.057 27.057 0 0 0-3.613 1.856 38.342 38.342 0 0 0-3.125 2.246l.293-7.617zm110.938-21.875 4.882 4.98-4.101 1.66 11.914 28.516-2.832 32.422-10.742 4.883-37.012 1.172-.781-11.621-1.172-53.418 37.598-5.567 2.246-3.027zm-15.235 22.168c-1.823.13-3.515.39-5.078.781-1.497.39-2.897.912-4.199 1.563a19.57 19.57 0 0 0-3.516 2.148 22.346 22.346 0 0 0-2.929 2.637 21.033 21.033 0 0 0-2.246 3.125 25.96 25.96 0 0 0-1.563 3.32 22.983 22.983 0 0 0-1.074 3.613 35.651 35.651 0 0 0-.391 3.711c0 1.628.13 3.19.391 4.688.26 1.497.683 2.93 1.269 4.297a30.837 30.837 0 0 0 2.051 3.808 25.61 25.61 0 0 0 2.637 3.32 23.892 23.892 0 0 0 3.125 2.637 28.54 28.54 0 0 0 3.613 2.051 21.385 21.385 0 0 0 3.711 1.367c1.302.26 2.572.423 3.809.489a13.346 13.346 0 0 0 3.613-.293 23.06 23.06 0 0 0 3.613-1.075 21.754 21.754 0 0 0 3.516-1.66 30.392 30.392 0 0 0 3.32-2.344 20.76 20.76 0 0 0 3.027-2.832 22.997 22.997 0 0 0 2.54-3.222 28.554 28.554 0 0 0 2.05-3.613 22.393 22.393 0 0 0 1.368-4.004l-3.711-.586a17.113 17.113 0 0 1-2.539 3.71 20.151 20.151 0 0 1-3.516 3.126 17.823 17.823 0 0 1-4.102 2.246c-1.432.52-2.864.814-4.297.879-.911 0-1.822-.098-2.734-.293a18.91 18.91 0 0 1-2.539-.782c-.846-.39-1.66-.846-2.441-1.367a56.626 56.626 0 0 1-2.051-1.758 51.281 51.281 0 0 1-1.856-1.953c-.52-.716-1.009-1.4-1.464-2.05-.456-.717-.847-1.4-1.172-2.051a73.931 73.931 0 0 1-.684-1.953l26.172-11.524a18.126 18.126 0 0 0-2.93-4.102 16.847 16.847 0 0 0-3.808-3.32 18.355 18.355 0 0 0-4.395-2.148c-1.562-.521-3.092-.716-4.59-.586zM259.01 65.54a20.689 20.689 0 0 0-.586-2.734 19.634 19.634 0 0 1-.391-2.734 8.01 8.01 0 0 1 .586-3.516c.521-1.107 1.172-2.05 1.953-2.832.781-.846 1.628-1.465 2.539-1.855.977-.456 1.921-.586 2.832-.391.912.13 1.725.293 2.442.488.781.13 1.497.424 2.148.88.716.39 1.4.976 2.051 1.757.716.781 1.465 1.888 2.246 3.32l-15.82 7.617zm42.285-39.355 70.996-2.832 4.883 23.047-3.028 43.457-26.465 7.422-43.945-3.223-3.32-32.422.879-35.449zm24.218 23.34-22.265-1.563-.196 3.223 4.688 1.66 14.355 37.305 4.395.293 12.305-21.387 8.496 23.145 3.515.195 17.579-33.984 6.542-2.149.196-2.637-18.555-1.367-.195 2.54 8.594 2.343-11.524 22.266-8.789-24.317 5.664-.586.293-2.832-22.559-1.758-.195 2.637 4.981 1.758 4.199 10.547-8.008 14.746-9.473-25.781 5.664-1.465.293-2.832zm58.204-28.32 18.847-.88 9.668 14.454-.879 62.011-34.375.196 1.27-68.36 5.469-7.421zm14.843 29.882-3.32.196a15.591 15.591 0 0 1-2.93 2.93 16.789 16.789 0 0 1-3.418 2.148 22.032 22.032 0 0 1-3.808 1.465 84.018 84.018 0 0 1-3.907.879l.098 2.636c.912 0 1.791.033 2.637.098.846.065 1.595.195 2.246.39.716.196 1.302.489 1.758.88.456.39.716.91.781 1.562l1.66 24.414c0 .326-.032.651-.097.977a5.666 5.666 0 0 1-.293.976 2.62 2.62 0 0 1-.586.88 1.455 1.455 0 0 1-.684.39l-5.859.976.293 3.223 25.488-1.66-.293-2.735-6.445-1.074c-.326-.065-.586-.26-.782-.586a9.245 9.245 0 0 1-.293-1.074l-2.246-37.89zm-6.152-20.215c-.911 0-1.758.196-2.539.586a6.632 6.632 0 0 0-1.953 1.368 6.618 6.618 0 0 0-1.367 1.953c-.326.716-.456 1.432-.391 2.148 0 .782.163 1.595.488 2.442a9.658 9.658 0 0 0 1.465 2.148 10.52 10.52 0 0 0 2.149 1.66c.781.39 1.562.586 2.343.586.782 0 1.53-.163 2.246-.488a7.808 7.808 0 0 0 2.051-1.465 6.396 6.396 0 0 0 1.465-2.246 5.538 5.538 0 0 0 .488-2.734 3.67 3.67 0 0 0-.683-2.149 6.103 6.103 0 0 0-1.563-1.855 6.283 6.283 0 0 0-2.051-1.367c-.716-.391-1.432-.587-2.148-.587zm20.312 65.919 4.2-65.918 10.742-7.52 31.152-.488 12.793 16.894 3.516 58.106-62.403-1.075zm8.79-45.313-.196 2.441a10.8 10.8 0 0 1 2.149.977 7.523 7.523 0 0 1 1.855 1.172c.586.39 1.009.846 1.27 1.367.325.456.455.911.39 1.367l-1.953 25.489-6.738.78-.098 2.638 22.461 2.05.391-3.027-4.981-2.246 1.66-25.684a94.303 94.303 0 0 1 2.637-1.758 17.92 17.92 0 0 1 5.762-2.734c1.042-.26 2.083-.39 3.125-.39.911 0 1.79.227 2.637.683a5.17 5.17 0 0 1 2.246 1.855c.651.782 1.139 1.758 1.465 2.93.325 1.172.423 2.507.293 4.004l-1.856 23.438-6.738.585-.196 2.93 22.657 1.953.097-3.125-5.664-1.758 2.442-23.535c.13-1.367.13-2.636 0-3.808-.13-1.172-.391-2.214-.782-3.125-.325-.977-.781-1.823-1.367-2.54a11.72 11.72 0 0 0-1.953-2.05 8.922 8.922 0 0 0-2.246-1.465 11.032 11.032 0 0 0-2.539-1.074 12.069 12.069 0 0 0-2.637-.684 33.57 33.57 0 0 0-2.539-.293c-1.302 0-2.604.163-3.906.489-1.302.26-2.572.65-3.809 1.171a32.89 32.89 0 0 0-3.711 1.856 41.223 41.223 0 0 0-3.32 2.05l1.074-9.081-2.636-.098a29.436 29.436 0 0 1-3.125 2.734 20.667 20.667 0 0 1-3.321 1.856c-1.106.456-2.343.814-3.711 1.074-1.302.26-2.832.456-4.589.586zm95.312-26.953 4.883 4.98-4.102 1.66 11.914 28.516-2.832 32.422-10.742 4.883-37.012 1.172-.781-11.621-1.172-53.418 37.598-5.567 2.246-3.027zm-15.234 22.168c-1.823.13-3.516.39-5.078.781a21.48 21.48 0 0 0-4.2 1.563 19.527 19.527 0 0 0-3.515 2.148 22.29 22.29 0 0 0-2.93 2.637 21.106 21.106 0 0 0-2.246 3.125 25.96 25.96 0 0 0-1.563 3.32 23.198 23.198 0 0 0-1.074 3.613 35.922 35.922 0 0 0-.39 3.711c0 1.628.13 3.19.39 4.688.261 1.497.684 2.93 1.27 4.297a30.83 30.83 0 0 0 2.05 3.808 25.782 25.782 0 0 0 2.637 3.32 23.958 23.958 0 0 0 3.125 2.637 28.609 28.609 0 0 0 3.613 2.051 21.385 21.385 0 0 0 3.711 1.367 26.55 26.55 0 0 0 3.809.489 13.346 13.346 0 0 0 3.613-.293 23.071 23.071 0 0 0 3.614-1.075 21.743 21.743 0 0 0 3.515-1.66 30.405 30.405 0 0 0 3.321-2.344 20.862 20.862 0 0 0 3.027-2.832 22.988 22.988 0 0 0 2.539-3.222 28.562 28.562 0 0 0 2.051-3.613 22.39 22.39 0 0 0 1.367-4.004l-3.711-.586a17.077 17.077 0 0 1-2.539 3.71 20.151 20.151 0 0 1-3.516 3.126 17.837 17.837 0 0 1-4.101 2.246 14.45 14.45 0 0 1-4.297.879c-.912 0-1.823-.098-2.735-.293a18.954 18.954 0 0 1-2.539-.782c-.846-.39-1.66-.846-2.441-1.367a57.498 57.498 0 0 1-2.051-1.758 51.242 51.242 0 0 1-1.855-1.953c-.521-.716-1.009-1.4-1.465-2.05-.456-.717-.846-1.4-1.172-2.051a81.966 81.966 0 0 1-.684-1.953L517.31 56.85a18.153 18.153 0 0 0-2.929-4.102 16.852 16.852 0 0 0-3.809-3.32 18.337 18.337 0 0 0-4.395-2.148c-1.562-.521-3.092-.716-4.589-.586zM489.869 65.54a20.53 20.53 0 0 0-.586-2.734 19.785 19.785 0 0 1-.391-2.734 8.024 8.024 0 0 1 .586-3.516c.521-1.107 1.172-2.05 1.953-2.832.782-.846 1.628-1.465 2.539-1.855.977-.456 1.921-.586 2.832-.391.912.13 1.726.293 2.442.488.781.13 1.497.424 2.148.88.716.39 1.4.976 2.051 1.757.716.781 1.465 1.888 2.246 3.32l-15.82 7.617z" fill="#2B0202"/></svg>