<svg width="149" height="132" viewBox="0 0 149 132" fill="none" xmlns="http://www.w3.org/2000/svg">
<path d="M146.885 74.0932H130.079C129.125 74.0932 128.212 73.7289 127.569 73.0913L82.1534 27.1298V129.71C82.1534 130.511 81.4065 131.167 80.4936 131.167H68.0453C67.1325 131.167 66.3856 130.511 66.3856 129.71V27.1298L20.97 73.0913C20.3476 73.7289 19.4347 74.0932 18.4596 74.0932H1.65435C0.243545 74.0932 -0.5241 72.6176 0.409523 71.6885L69.2694 2.0086C69.8919 1.37808 70.6614 0.872416 71.5259 0.525854C72.3903 0.179293 73.3295 -6.31543e-05 74.2799 -6.31543e-05C75.2302 -6.31543e-05 76.1694 0.179293 77.0338 0.525854C77.8983 0.872416 78.6678 1.37808 79.2903 2.0086L148.129 71.6885C149.063 72.6358 148.295 74.0932 146.885 74.0932Z" fill="black"/>
</svg>
