<svg width="149" height="132" viewBox="0 0 149 132" fill="none" xmlns="http://www.w3.org/2000/svg">
<path d="M147.177 57.5748H130.372C129.417 57.5748 128.505 57.9391 127.861 58.5767L82.4458 104.538V1.95834C82.4458 1.15679 81.6989 0.500977 80.7861 0.500977H68.3377C67.4249 0.500977 66.678 1.15679 66.678 1.95834V104.538L21.2624 58.5767C20.64 57.9391 19.7271 57.5748 18.752 57.5748H1.94677C0.535965 57.5748 -0.231681 59.0504 0.701942 59.9794L69.5618 129.659C70.1843 130.29 70.9538 130.796 71.8183 131.142C72.6828 131.489 73.622 131.668 74.5723 131.668C75.5226 131.668 76.4618 131.489 77.3263 131.142C78.1907 130.796 78.9603 130.29 79.5827 129.659L148.422 59.9794C149.355 59.0321 148.588 57.5748 147.177 57.5748Z" fill="black"/>
</svg>
